<?xml version="1.0" encoding="utf-8"?>
<!-- Generator: Adobe Illustrator 19.0.0, SVG Export Plug-In . SVG Version: 6.00 Build 0)  -->
<svg version="1.1" id="Capa_1" xmlns="http://www.w3.org/2000/svg" xmlns:xlink="http://www.w3.org/1999/xlink" x="0px" y="0px"
	 width="100px" height="100px" viewBox="0 0 100 100" style="enable-background:new 0 0 100 100;" xml:space="preserve">
<style type="text/css">
	.st0{fill:#FFFFFF;}
</style>
<g>
	<path id="XMLID_91_" class="st0" d="M53.3,38.7c0-0.4,0-0.9,0.1-1.3c0-0.1,0-0.3,0.1-0.4c0.1-0.6,0.2-1.1,0.4-1.7
		c0-0.1,0-0.1,0-0.2c0.2-0.6,0.4-1.3,0.7-1.9v-0.1c0.3-0.6,0.6-1.2,0.9-1.7c0.1-0.1,0.1-0.3,0.2-0.4l0.1-0.1c2.7-4,7.3-6.6,12.4-6.6
		c8.1,0,14.6,6.4,15,14.3c-6.2,0.8-11,6.1-11,12.5c0,0.9,0.7,1.6,1.6,1.6c0.9,0,1.6-0.7,1.6-1.6c0-5.2,4.3-9.5,9.5-9.5
		s9.5,4.3,9.5,9.5c0,0.9,0.7,1.6,1.6,1.6c0.9,0,1.6-0.7,1.6-1.6c0-6.4-4.9-11.8-11.1-12.5c-0.4-9.7-8.4-17.5-18.2-17.5
		c-5.6,0-10.6,2.6-14,6.6c-4.4-5.9-11.2-9.4-18.7-9.4c-12.9,0-23.4,10.5-23.4,23.4c0,6.1,2.3,11.8,6.5,16.1
		c-5.4,0.7-10.3,3.7-13.3,8.6c-5.2,8.6-2.5,19.8,6.1,25c0.3,0.2,0.5,0.2,0.8,0.2c0.5,0,1.1-0.3,1.3-0.8c0.5-0.7,0.2-1.7-0.5-2.2
		C6,84.3,3.8,75,8.1,68c3.5-5.7,10.2-8.4,16.6-6.7c0.7,2.3,2.1,4.4,4,6c0.3,0.2,0.6,0.4,1,0.4c0.5,0,0.9-0.2,1.2-0.6
		c0.6-0.7,0.5-1.7-0.2-2.2c-1.6-1.3-2.6-3-3.1-4.9c0-0.1,0-0.2-0.1-0.2l0,0v-0.1c-0.2-1.1-0.3-2.1-0.2-3.2c0-0.1,0-0.1,0-0.2
		c0-0.3,0.1-0.5,0.1-0.8c0-0.1,0-0.2,0.1-0.3c0.1-0.2,0.1-0.5,0.2-0.7c0-0.1,0.1-0.2,0.1-0.3c0.1-0.2,0.2-0.4,0.3-0.6
		c0.1-0.1,0.1-0.2,0.1-0.3c0.1-0.2,0.2-0.4,0.3-0.6c0.1-0.1,0.1-0.2,0.2-0.3c0.2-0.3,0.4-0.6,0.6-0.8c2.1-2.6,5.4-3.8,8.7-3.4
		c-0.4,1.9-0.5,3.8,0,5.8c0.2,0.7,0.8,1.2,1.5,1.2c0.1,0,0.2,0,0.4,0c0.8-0.2,1.4-1.1,1.2-1.9c-0.4-1.9-0.3-3.8,0.4-5.5v-0.1
		c0-0.1,0.1-0.1,0.1-0.2c0.1-0.3,0.2-0.6,0.4-0.8c0-0.1,0.1-0.2,0.1-0.2c0.1-0.2,0.3-0.5,0.4-0.7c0-0.1,0.1-0.1,0.1-0.2
		C43,45,43.5,44.5,44,44c0,0,0.1,0,0.1-0.1c0.2-0.2,0.5-0.4,0.8-0.6c0.1,0,0.1-0.1,0.2-0.1c0.2-0.2,0.5-0.3,0.7-0.4
		c0.1,0,0.2-0.1,0.3-0.1c0.2-0.1,0.5-0.2,0.7-0.3c0.1,0,0.2-0.1,0.3-0.1c0.3-0.1,0.7-0.2,1-0.3c0.5-0.1,1-0.2,1.6-0.2c0,0,0,0,0.1,0
		c0.5,0,1.1,0,1.6,0.1c0.1,0,0.1,0,0.2,0h0.2c3.6,0.6,6.7,3.4,7.6,7.2c0.2,0.8,1,1.4,1.9,1.2c0.8-0.2,1.4-1.1,1.2-1.9
		C61.6,43.3,57.8,39.8,53.3,38.7L53.3,38.7z M35.6,21.4c6.8,0,13,3.4,16.8,9c-0.7,1.2-1.2,2.4-1.6,3.7c0,0.1-0.1,0.3-0.1,0.4
		c-0.1,0.5-0.2,1-0.3,1.5c0,0.2-0.1,0.4-0.1,0.7c-0.1,0.4-0.1,0.8-0.1,1.2c0,0.1,0,0.3,0,0.4c-0.9,0-1.8,0.1-2.6,0.3
		c-0.4,0.1-0.9,0.2-1.3,0.4c-0.1,0-0.2,0.1-0.2,0.1c-0.3,0.1-0.7,0.3-1,0.4c-0.1,0-0.2,0.1-0.2,0.1c-0.3,0.2-0.6,0.3-0.9,0.5
		c-0.1,0.1-0.2,0.1-0.3,0.2c-0.3,0.2-0.6,0.4-0.8,0.6c-0.1,0.1-0.2,0.2-0.3,0.2c-0.2,0.2-0.5,0.4-0.7,0.6c-0.1,0.1-0.2,0.2-0.3,0.3
		c-0.2,0.2-0.4,0.4-0.6,0.6c-0.1,0.1-0.2,0.2-0.3,0.4c-0.2,0.2-0.3,0.4-0.5,0.6c-0.1,0.1-0.2,0.3-0.3,0.4c-0.1,0.2-0.3,0.4-0.4,0.7
		c-0.1,0.1-0.1,0.2-0.2,0.3c-0.1,0-0.2,0-0.3,0c-0.3,0-0.5-0.1-0.7-0.1c-0.4,0-0.7-0.1-1.1-0.1c-0.2,0-0.5,0-0.7,0
		c-0.4,0-0.7,0-1,0.1c-0.3,0-0.5,0.1-0.7,0.1c-0.3,0.1-0.7,0.1-1,0.2c-0.2,0.1-0.5,0.1-0.7,0.2c-0.3,0.1-0.7,0.2-1,0.4
		c-0.2,0.1-0.4,0.2-0.7,0.3c-0.3,0.2-0.6,0.3-1,0.5c-0.2,0.1-0.4,0.2-0.6,0.4c-0.3,0.2-0.6,0.5-1,0.7c-0.2,0.1-0.3,0.2-0.5,0.4
		c-0.4,0.4-0.9,0.8-1.3,1.3c-0.3,0.3-0.5,0.6-0.7,1c-0.1,0.1-0.1,0.2-0.2,0.4c-0.1,0.2-0.3,0.4-0.4,0.7c-0.1,0.2-0.2,0.3-0.2,0.5
		c-0.1,0.2-0.2,0.4-0.3,0.6c-0.1,0.2-0.1,0.4-0.2,0.5c-0.1,0.2-0.1,0.4-0.2,0.5c-0.1,0.2-0.1,0.4-0.2,0.6c0,0.2-0.1,0.3-0.1,0.5
		s-0.1,0.4-0.1,0.6c0,0.2-0.1,0.3-0.1,0.5s-0.1,0.4-0.1,0.7c0,0.2,0,0.3,0,0.5s0,0.5,0,0.7v0.1c-0.3-0.1-0.6-0.1-0.8-0.1
		c-5-3.9-7.9-9.7-7.9-16C15.4,30.5,24.4,21.4,35.6,21.4L35.6,21.4z"/>
	<path id="XMLID_83_" class="st0" d="M4,43.2h6.5c0.9,0,1.6-0.7,1.6-1.6c0-0.9-0.7-1.6-1.6-1.6H4c-0.9,0-1.6,0.7-1.6,1.6
		S3.1,43.2,4,43.2L4,43.2z"/>
	<path id="XMLID_80_" class="st0" d="M35.6,18.1c0.9,0,1.6-0.7,1.6-1.6V10c0-0.9-0.7-1.6-1.6-1.6S34,9.1,34,10v6.5
		C34,17.4,34.7,18.1,35.6,18.1L35.6,18.1z"/>
	<path id="XMLID_77_" class="st0" d="M16.7,25c0.3,0.3,0.7,0.5,1.1,0.5c0.4,0,0.8-0.2,1.1-0.5c0.6-0.6,0.6-1.6,0-2.2l-6.3-6.3
		c-0.6-0.6-1.6-0.6-2.2,0c-0.6,0.6-0.6,1.6,0,2.2L16.7,25z"/>
	<path id="XMLID_74_" class="st0" d="M53.3,25.5c0.4,0,0.8-0.2,1.1-0.5l6.3-6.3c0.6-0.6,0.6-1.6,0-2.2s-1.6-0.6-2.2,0l-6.3,6.3
		c-0.6,0.6-0.6,1.6,0,2.2C52.5,25.3,52.9,25.5,53.3,25.5L53.3,25.5z"/>
	<path id="XMLID_71_" class="st0" d="M24.3,19.2c0.3,0.6,0.8,1,1.5,1c0.2,0,0.4,0,0.6-0.1c0.8-0.3,1.2-1.3,0.8-2.1l-1.3-3
		c-0.3-0.8-1.3-1.2-2.1-0.8c-0.8,0.3-1.2,1.3-0.8,2.1L24.3,19.2z"/>
	<path id="XMLID_68_" class="st0" d="M44.4,19.8c0.2,0.1,0.4,0.1,0.6,0.1c0.6,0,1.2-0.4,1.5-1l1.2-3c0.3-0.8-0.1-1.7-0.9-2.1
		c-0.8-0.3-1.7,0.1-2.1,0.9l-1.2,3C43.2,18.6,43.6,19.5,44.4,19.8L44.4,19.8z"/>
	<path id="XMLID_65_" class="st0" d="M8,53.3c0.3,0.6,0.8,1,1.5,1c0.2,0,0.4,0,0.6-0.1l3-1.3c0.8-0.3,1.2-1.3,0.8-2.1
		c-0.3-0.8-1.3-1.2-2.1-0.8l-3,1.3C8.1,51.6,7.7,52.5,8,53.3L8,53.3z"/>
	<path id="XMLID_62_" class="st0" d="M8.7,32.5l3,1.2c0.2,0.1,0.4,0.1,0.6,0.1c0.6,0,1.2-0.4,1.5-1c0.3-0.8-0.1-1.7-0.9-2.1l-3-1.2
		c-0.8-0.3-1.7,0.1-2.1,0.9C7.5,31.2,7.9,32.1,8.7,32.5L8.7,32.5z"/>
</g>
</svg>
