<?xml version="1.0" encoding="utf-8"?>
<!-- Generator: Adobe Illustrator 19.0.0, SVG Export Plug-In . SVG Version: 6.00 Build 0)  -->
<svg version="1.1" id="Capa_1" xmlns="http://www.w3.org/2000/svg" xmlns:xlink="http://www.w3.org/1999/xlink" x="0px" y="0px"
	 width="100px" height="100px" viewBox="0 0 100 100" style="enable-background:new 0 0 100 100;" xml:space="preserve">
<style type="text/css">
	.st0{fill:#FFFFFF;}
</style>
<path id="XMLID_258_" class="st0" d="M50,50"/>
<path id="XMLID_257_" class="st0" d="M86.4,32.1C86,22.3,78,14.5,68.1,14.5c-12.7,0-17.2,11.9-17.6,13.2c0,0.1-0.1,0.3-0.1,0.4
	c-0.1,0.5-0.2,1-0.3,1.5c0,0.2-0.1,0.5-0.1,0.7c-0.1,0.4-0.1,0.8-0.1,1.2c0,0.1,0,0.3,0,0.4c-0.9,0-1.8,0.1-2.7,0.3
	c-0.4,0.1-0.9,0.2-1.3,0.4c-0.1,0-0.2,0.1-0.2,0.1c-0.3,0.1-0.7,0.3-1,0.4c-0.1,0-0.2,0.1-0.2,0.1c-0.3,0.2-0.6,0.3-0.9,0.5
	c-0.1,0.1-0.2,0.1-0.3,0.2c-0.3,0.2-0.6,0.4-0.8,0.6c-0.1,0.1-0.2,0.2-0.3,0.2c-0.2,0.2-0.5,0.4-0.7,0.6c-0.1,0.1-0.2,0.2-0.3,0.3
	c-0.2,0.2-0.4,0.4-0.6,0.6c-0.1,0.1-0.2,0.2-0.3,0.4c-0.2,0.2-0.3,0.4-0.5,0.6c-0.1,0.1-0.2,0.3-0.3,0.4c-0.1,0.2-0.3,0.5-0.4,0.7
	c-0.1,0.1-0.1,0.2-0.2,0.3c-0.1,0-0.2,0-0.3,0c-0.3,0-0.5-0.1-0.8-0.1c-0.4,0-0.7-0.1-1.1-0.1c-0.2,0-0.5,0-0.7,0
	c-0.4,0-0.7,0-1,0.1c-0.3,0-0.5,0.1-0.7,0.1c-0.3,0.1-0.7,0.1-1,0.2c-0.2,0.1-0.5,0.1-0.7,0.2c-0.3,0.1-0.7,0.2-1,0.4
	c-0.2,0.1-0.5,0.2-0.7,0.3c-0.3,0.2-0.6,0.3-1,0.5c-0.2,0.1-0.4,0.2-0.6,0.4c-0.3,0.2-0.7,0.5-1,0.7c-0.2,0.1-0.3,0.2-0.5,0.4
	c-0.5,0.4-0.9,0.9-1.3,1.3c-0.3,0.3-0.5,0.6-0.7,1c-0.1,0.1-0.1,0.2-0.2,0.4c-0.1,0.2-0.3,0.4-0.4,0.7c-0.1,0.2-0.2,0.3-0.2,0.5
	c-0.1,0.2-0.2,0.4-0.3,0.6c-0.1,0.2-0.1,0.4-0.2,0.5c-0.1,0.2-0.1,0.4-0.2,0.6c-0.1,0.2-0.1,0.4-0.2,0.6c0,0.2-0.1,0.4-0.1,0.5
	c0,0.2-0.1,0.4-0.1,0.6c0,0.2-0.1,0.3-0.1,0.5s-0.1,0.4-0.1,0.7c0,0.2,0,0.3,0,0.5s0,0.5,0,0.7v0.1c-0.3-0.1-12.8-2.5-18.9,8.6
	C0,69,2.3,80,10.9,85.3c0.3,0.2,0.5,0.2,0.8,0.2c0.5,0,1.1-0.3,1.4-0.8c0.5-0.8,0.2-1.7-0.5-2.2c-7.1-4.3-9.4-13.7-5.1-20.8
	c3.5-5.8,10.3-8.5,16.7-6.8c0.7,2.4,2.1,4.4,4.1,6c0.3,0.2,0.7,0.4,1,0.4c0.5,0,0.9-0.2,1.2-0.6c0.6-0.7,0.5-1.7-0.2-2.2
	c-1.6-1.3-2.7-3-3.2-5c0-0.1,0-0.2-0.1-0.2l0,0v-0.1c-0.2-1.1-0.3-2.1-0.2-3.2c0-0.1,0-0.1,0-0.2c0-0.3,0.1-0.6,0.1-0.8
	c0-0.1,0-0.2,0.1-0.3c0.1-0.2,0.1-0.5,0.2-0.7c0-0.1,0.1-0.2,0.1-0.3c0.1-0.2,0.2-0.4,0.3-0.6c0.1-0.1,0.1-0.2,0.1-0.3
	c0.1-0.2,0.2-0.4,0.4-0.6c0.1-0.1,0.1-0.2,0.2-0.3c0.2-0.3,0.4-0.6,0.6-0.8c2.2-2.6,5.5-3.9,8.8-3.4c-0.5,1.9-0.5,3.9,0,5.9
	c0.2,0.7,0.8,1.2,1.6,1.2c0.1,0,0.2,0,0.4,0c0.9-0.2,1.4-1.1,1.2-1.9c-0.5-1.9-0.3-3.8,0.4-5.6v-0.1c0-0.1,0.1-0.1,0.1-0.2
	c0.1-0.3,0.2-0.6,0.4-0.8c0-0.1,0.1-0.2,0.1-0.2c0.1-0.2,0.3-0.5,0.4-0.7c0-0.1,0.1-0.1,0.1-0.2c0.4-0.6,0.9-1.1,1.5-1.6
	c0,0,0.1,0,0.1-0.1c0.2-0.2,0.5-0.4,0.8-0.6c0.1,0,0.1-0.1,0.2-0.1c0.2-0.2,0.5-0.3,0.7-0.4c0.1,0,0.2-0.1,0.3-0.1
	c0.2-0.1,0.5-0.2,0.7-0.3c0.1,0,0.2-0.1,0.3-0.1c0.3-0.1,0.7-0.2,1-0.3c0.5-0.1,1.1-0.2,1.6-0.2c0,0,0,0,0.1,0c0.5,0,1.1,0,1.7,0.1
	c0.1,0,0.1,0,0.2,0h0.2c3.7,0.6,6.8,3.4,7.7,7.2c0.2,0.9,1.1,1.4,1.9,1.2c0.9-0.2,1.4-1.1,1.2-1.9c-1.1-4.8-4.9-8.4-9.5-9.5
	c0-0.5,0-0.9,0.1-1.3c0-0.1,0-0.3,0.1-0.4c0.1-0.6,0.2-1.1,0.4-1.7c0-0.1,0-0.1,0-0.2c0.2-0.6,0.4-1.3,0.7-1.9v-0.1
	c0.3-0.6,0.6-1.2,0.9-1.7c0.1-0.1,0.1-0.3,0.2-0.4l0.1-0.1c2.7-4,7.3-6.7,12.5-6.7c8.1,0,14.7,6.4,15.1,14.5
	c-6.3,0.8-11.1,6.2-11.1,12.6c0,0.9,0.7,1.6,1.6,1.6s1.6-0.7,1.6-1.6c0-5.3,4.3-9.6,9.6-9.6c5.3,0,9.6,4.3,9.6,9.6
	c0,0.9,0.7,1.6,1.6,1.6s1.6-0.7,1.6-1.6C97.6,38.3,92.7,32.9,86.4,32.1z"/>
<path id="XMLID_36_" class="st0" d="M58.6,50.2c-0.7-6.3-6.1-11.3-12.7-11.3c-7,0-12.7,5.7-12.7,12.7c0,0.9,0.7,1.6,1.6,1.6
	s1.6-0.7,1.6-1.6c0-5.3,4.3-9.6,9.6-9.6c4.8,0,8.7,3.5,9.4,8.1c-4.5,0.8-7.8,4.7-7.8,9.4c0,0.9,0.7,1.6,1.6,1.6s1.6-0.7,1.6-1.6
	c0-3.5,2.9-6.4,6.4-6.4s6.4,2.9,6.4,6.4c0,0.9,0.7,1.6,1.6,1.6s1.6-0.7,1.6-1.6C66.6,54.9,63.1,50.9,58.6,50.2L58.6,50.2z"/>
</svg>
