<?xml version="1.0" encoding="utf-8"?>
<!-- Generator: Adobe Illustrator 16.0.0, SVG Export Plug-In . SVG Version: 6.00 Build 0)  -->
<!DOCTYPE svg PUBLIC "-//W3C//DTD SVG 1.1//EN" "http://www.w3.org/Graphics/SVG/1.1/DTD/svg11.dtd">
<svg version="1.1" id="Capa_1" xmlns="http://www.w3.org/2000/svg" xmlns:xlink="http://www.w3.org/1999/xlink" x="0px" y="0px"
	 width="79px" height="23px" viewBox="0 0 79 23" enable-background="new 0 0 79 23" xml:space="preserve">
<rect fill="#FF8D00" width="79" height="23"/>
<g>
	<g enable-background="new    ">
		<path fill="#FFFFFF" d="M20.462,9.861c0-0.013,0.013-0.031,0.038-0.057c0.367-0.532,0.744-1.077,1.13-1.635
			c0.386-0.557,0.782-1.095,1.188-1.614s0.814-1.008,1.226-1.464c0.412-0.455,0.823-0.842,1.235-1.158s0.814-0.552,1.207-0.703
			c0.393-0.152,0.779-0.184,1.159-0.096c0.393,0.089,0.614,0.33,0.665,0.723c0.05,0.393-0.104,0.893-0.466,1.501
			c-0.361,0.607-0.947,1.299-1.757,2.071s-1.881,1.583-3.211,2.432c0.393,0.013,0.728,0.076,1.007,0.189
			c0.279,0.114,0.481,0.238,0.608,0.371c0.127,0.133,0.165,0.253,0.114,0.361c-0.051,0.107-0.197,0.161-0.437,0.161h-2.603
			l-5.282,8.132c-0.152,0.19-0.336,0.345-0.551,0.466c-0.215,0.12-0.412,0.181-0.589,0.181h-0.551c-0.177,0-0.278-0.063-0.304-0.19
			s0.032-0.278,0.171-0.456c0.646-1.014,1.286-2.014,1.919-3.002c0.266-0.418,0.548-0.855,0.846-1.311
			c0.297-0.456,0.592-0.909,0.883-1.359c0.292-0.449,0.573-0.883,0.846-1.301c0.272-0.418,0.528-0.805,0.77-1.159
			c-0.304-0.013-0.564-0.079-0.779-0.199c-0.215-0.121-0.368-0.244-0.456-0.371c-0.088-0.126-0.111-0.243-0.066-0.352
			c0.044-0.107,0.174-0.161,0.39-0.161H20.462z M27.378,4.161c-0.076-0.126-0.212-0.136-0.408-0.028
			c-0.197,0.107-0.431,0.294-0.703,0.561c-0.272,0.266-0.564,0.586-0.874,0.959c-0.311,0.374-0.621,0.764-0.931,1.169
			c-0.311,0.405-0.605,0.805-0.883,1.197c-0.279,0.393-0.52,0.729-0.722,1.007c0.304-0.178,0.64-0.402,1.007-0.675
			s0.732-0.566,1.093-0.884c0.361-0.316,0.706-0.639,1.036-0.969c0.329-0.329,0.608-0.643,0.836-0.94
			c0.228-0.297,0.396-0.57,0.503-0.816C27.438,4.494,27.455,4.301,27.378,4.161z"/>
		<path fill="#FFFFFF" d="M29.031,11.134c0.139-0.126,0.272-0.212,0.399-0.256s0.228-0.054,0.304-0.028
			c0.076,0.025,0.111,0.089,0.104,0.189c-0.007,0.102-0.073,0.234-0.2,0.399c-0.469,0.569-0.969,1.02-1.501,1.349
			c-0.532,0.33-1.026,0.561-1.482,0.693s-0.846,0.181-1.168,0.143c-0.323-0.038-0.503-0.139-0.542-0.304
			c-0.025-0.102,0.028-0.26,0.162-0.476c0.133-0.215,0.294-0.452,0.484-0.712s0.39-0.516,0.599-0.77
			c0.209-0.253,0.376-0.469,0.503-0.646c-0.203,0.051-0.447,0.175-0.731,0.371c-0.285,0.196-0.573,0.425-0.865,0.684
			c-0.292,0.26-0.573,0.535-0.845,0.827c-0.273,0.291-0.498,0.563-0.675,0.816c-0.177,0.254-0.342,0.491-0.494,0.713
			c-0.152,0.222-0.285,0.415-0.399,0.579c-0.139,0.19-0.26,0.361-0.361,0.513c-0.152,0.19-0.336,0.346-0.551,0.466
			c-0.216,0.121-0.412,0.181-0.589,0.181h-0.551c-0.177,0-0.278-0.063-0.304-0.19c-0.025-0.126,0.032-0.278,0.171-0.456l3.819-5.414
			c0.139-0.19,0.316-0.343,0.532-0.456c0.215-0.114,0.412-0.172,0.589-0.172h0.551c0.177,0,0.282,0.061,0.313,0.181
			c0.032,0.121-0.022,0.27-0.162,0.447l-0.665,0.893c0.393-0.342,0.779-0.63,1.159-0.864s0.725-0.415,1.036-0.542
			c0.31-0.126,0.576-0.196,0.798-0.209s0.377,0.025,0.465,0.114c0.165,0.178,0.171,0.421,0.019,0.731
			c-0.152,0.311-0.361,0.63-0.627,0.96c-0.266,0.329-0.532,0.64-0.798,0.931s-0.425,0.507-0.475,0.646
			c0.405-0.139,0.757-0.316,1.055-0.531C28.407,11.717,28.714,11.451,29.031,11.134z"/>
		<path fill="#FFFFFF" d="M33.895,9.596c0.202,0.228,0.316,0.516,0.342,0.864s-0.038,0.731-0.19,1.149s-0.38,0.849-0.684,1.292
			c-0.304,0.443-0.678,0.867-1.121,1.272c-0.431,0.406-0.877,0.745-1.339,1.017c-0.462,0.272-0.902,0.469-1.32,0.589
			c-0.418,0.121-0.805,0.162-1.159,0.124c-0.355-0.038-0.633-0.171-0.836-0.399c-0.216-0.228-0.333-0.516-0.352-0.864
			s0.047-0.731,0.2-1.149c0.152-0.418,0.376-0.849,0.674-1.292c0.297-0.443,0.668-0.867,1.111-1.273
			c0.431-0.418,0.877-0.763,1.34-1.035c0.462-0.272,0.905-0.469,1.33-0.589s0.811-0.158,1.159-0.114
			C33.397,9.231,33.679,9.367,33.895,9.596z M31.976,12.939c0.24-0.316,0.443-0.627,0.608-0.932
			c0.165-0.304,0.285-0.589,0.361-0.854s0.104-0.497,0.085-0.693s-0.085-0.339-0.199-0.428c-0.127-0.089-0.289-0.114-0.485-0.076
			s-0.412,0.133-0.646,0.285s-0.481,0.349-0.741,0.589c-0.26,0.241-0.51,0.52-0.75,0.836c-0.241,0.317-0.44,0.627-0.599,0.932
			c-0.159,0.304-0.275,0.586-0.352,0.845c-0.076,0.26-0.104,0.488-0.085,0.685s0.085,0.339,0.2,0.428
			c0.126,0.088,0.288,0.113,0.484,0.075c0.196-0.038,0.412-0.129,0.646-0.275c0.234-0.146,0.478-0.339,0.731-0.579
			S31.735,13.256,31.976,12.939z"/>
		<path fill="#FFFFFF" d="M40.336,9.215c0.329-0.05,0.602-0.038,0.816,0.038c0.216,0.076,0.33,0.238,0.342,0.484
			c0.014,0.247-0.098,0.596-0.332,1.046c-0.234,0.449-0.637,1.028-1.207,1.738c-0.292,0.342-0.503,0.627-0.636,0.854
			c-0.133,0.229-0.222,0.409-0.266,0.542s-0.054,0.225-0.028,0.275c0.025,0.051,0.063,0.082,0.114,0.095
			c0.126,0.038,0.339-0.044,0.637-0.247c0.297-0.202,0.627-0.468,0.988-0.798c0.36-0.329,0.725-0.684,1.092-1.063
			c0.367-0.381,0.678-0.729,0.932-1.046c0.177-0.202,0.326-0.332,0.446-0.389c0.12-0.058,0.209-0.058,0.266,0
			c0.058,0.057,0.079,0.148,0.067,0.275c-0.014,0.127-0.07,0.266-0.172,0.418c-0.088,0.127-0.237,0.316-0.446,0.569
			c-0.209,0.254-0.456,0.532-0.741,0.836c-0.285,0.305-0.596,0.621-0.931,0.95c-0.336,0.33-0.675,0.634-1.017,0.912
			c-0.342,0.279-0.681,0.522-1.017,0.731c-0.336,0.209-0.636,0.339-0.902,0.39c-0.38,0.076-0.69,0.051-0.931-0.076
			c-0.241-0.126-0.383-0.332-0.427-0.617c-0.045-0.285,0.019-0.649,0.19-1.093c0.171-0.443,0.478-0.95,0.921-1.52
			c0.532-0.672,0.921-1.162,1.168-1.473s0.301-0.497,0.162-0.561c-0.114-0.063-0.352,0.025-0.712,0.266
			c-0.361,0.241-0.77,0.561-1.226,0.96c-0.456,0.398-0.916,0.843-1.377,1.33c-0.463,0.487-0.846,0.947-1.15,1.377
			c-0.025,0.051-0.051,0.083-0.076,0.096l-0.494,0.702c-0.152,0.19-0.336,0.346-0.551,0.466c-0.216,0.121-0.412,0.181-0.589,0.181
			h-0.551c-0.177,0-0.278-0.063-0.304-0.19c-0.025-0.126,0.032-0.278,0.171-0.456l3.819-5.414c0.139-0.19,0.316-0.343,0.532-0.456
			c0.215-0.114,0.412-0.172,0.589-0.172h0.551c0.177,0,0.282,0.061,0.313,0.181c0.032,0.121-0.022,0.27-0.162,0.447l-0.684,0.969
			c0.481-0.405,0.959-0.751,1.434-1.036C39.433,9.453,39.892,9.278,40.336,9.215z"/>
		<path fill="#FFFFFF" d="M42.9,5.947c0.305,0,0.779-0.003,1.426-0.01c0.646-0.006,1.374-0.016,2.185-0.028l0.817-1.102
			c0.139-0.178,0.316-0.326,0.531-0.447c0.216-0.12,0.412-0.18,0.59-0.18H49c0.177,0,0.281,0.06,0.313,0.18
			c0.032,0.121-0.021,0.27-0.16,0.447c-0.026,0.025-0.111,0.136-0.258,0.332c-0.145,0.196-0.326,0.44-0.541,0.731
			c0.633,0,1.26-0.003,1.881-0.01c0.621-0.006,1.193-0.012,1.72-0.019c0.525-0.006,0.981-0.013,1.368-0.019
			c0.387-0.007,0.668-0.01,0.846-0.01c0.316-0.013,0.617,0.044,0.902,0.171s0.504,0.27,0.655,0.428
			c0.152,0.158,0.209,0.307,0.171,0.446c-0.037,0.14-0.215,0.209-0.531,0.209c-0.19,0-0.561,0.013-1.111,0.038
			c-0.552,0.025-1.204,0.057-1.957,0.095c-0.754,0.038-1.571,0.076-2.451,0.114c-0.881,0.038-1.758,0.076-2.632,0.114
			c-0.394,0.544-0.805,1.114-1.235,1.71c-0.431,0.595-0.836,1.162-1.216,1.7s-0.712,1.017-0.997,1.435s-0.484,0.716-0.6,0.893
			c-0.228,0.38-0.354,0.655-0.379,0.827c-0.025,0.171,0.006,0.269,0.095,0.294c0.126,0.038,0.339-0.044,0.636-0.247
			c0.299-0.202,0.627-0.468,0.988-0.798c0.361-0.329,0.725-0.684,1.093-1.063c0.367-0.381,0.678-0.729,0.931-1.046
			c0.178-0.202,0.33-0.332,0.457-0.389c0.126-0.058,0.218-0.058,0.275,0c0.057,0.057,0.076,0.148,0.057,0.275
			s-0.073,0.266-0.162,0.418c-0.088,0.127-0.236,0.316-0.445,0.569c-0.21,0.254-0.457,0.532-0.742,0.836
			c-0.285,0.305-0.596,0.621-0.931,0.95c-0.335,0.33-0.678,0.634-1.026,0.912c-0.348,0.279-0.687,0.522-1.016,0.731
			c-0.33,0.209-0.634,0.339-0.912,0.39c-0.381,0.076-0.672,0.057-0.874-0.057c-0.203-0.114-0.333-0.292-0.39-0.532
			s-0.047-0.522,0.028-0.846c0.076-0.323,0.209-0.655,0.399-0.997c0.088-0.152,0.275-0.44,0.561-0.865
			c0.285-0.424,0.623-0.911,1.016-1.463c0.393-0.551,0.811-1.14,1.254-1.767s0.868-1.226,1.273-1.796
			C44.49,7.543,43.74,7.575,43.1,7.601c-0.639,0.025-1.061,0.038-1.263,0.038c-0.329,0.013-0.513-0.07-0.552-0.247
			c-0.037-0.178,0.014-0.371,0.152-0.58c0.14-0.209,0.346-0.405,0.617-0.589C42.328,6.039,42.609,5.947,42.9,5.947z"/>
		<path fill="#FFFFFF" d="M46.32,11.306c0.582-0.57,1.141-1.02,1.672-1.35c0.532-0.329,1.026-0.554,1.482-0.675
			c0.455-0.12,0.861-0.145,1.216-0.075s0.646,0.206,0.874,0.408c0.139-0.14,0.297-0.247,0.475-0.323s0.342-0.114,0.494-0.114h0.551
			c0.178,0,0.282,0.061,0.314,0.181c0.031,0.121-0.023,0.27-0.162,0.447c-0.051,0.063-0.171,0.215-0.361,0.455
			c-0.189,0.241-0.402,0.529-0.637,0.865s-0.478,0.684-0.73,1.045c-0.254,0.36-0.469,0.693-0.646,0.997
			c-0.24,0.38-0.377,0.655-0.408,0.827c-0.032,0.171,0.003,0.269,0.104,0.294c0.126,0.038,0.339-0.044,0.636-0.247
			c0.298-0.202,0.627-0.468,0.988-0.798c0.361-0.329,0.725-0.684,1.093-1.063c0.367-0.381,0.685-0.729,0.95-1.046
			c0.164-0.202,0.307-0.332,0.428-0.389c0.119-0.058,0.209-0.058,0.266,0c0.057,0.057,0.079,0.148,0.066,0.275
			s-0.07,0.266-0.171,0.418c-0.089,0.127-0.234,0.316-0.437,0.569c-0.203,0.254-0.447,0.532-0.732,0.836
			c-0.285,0.305-0.598,0.621-0.939,0.95c-0.343,0.33-0.688,0.634-1.036,0.912c-0.349,0.279-0.688,0.522-1.017,0.731
			c-0.33,0.209-0.633,0.339-0.912,0.39c-0.316,0.063-0.573,0.054-0.77-0.028s-0.336-0.212-0.418-0.39
			c-0.082-0.177-0.113-0.393-0.095-0.646c0.019-0.254,0.085-0.526,0.199-0.817c-0.228,0.216-0.475,0.437-0.741,0.665
			c-0.266,0.228-0.538,0.434-0.816,0.617c-0.279,0.184-0.561,0.336-0.846,0.456c-0.285,0.121-0.555,0.181-0.808,0.181
			c-0.354,0-0.627-0.12-0.817-0.361c-0.189-0.24-0.266-0.566-0.228-0.979c0.038-0.411,0.209-0.893,0.513-1.443
			C45.219,12.53,45.688,11.938,46.32,11.306z M47.232,12.065c-0.305,0.342-0.535,0.681-0.693,1.017s-0.234,0.614-0.229,0.836
			s0.102,0.352,0.285,0.39s0.473-0.07,0.865-0.323c0.277-0.165,0.582-0.402,0.912-0.713c0.328-0.31,0.654-0.64,0.979-0.987
			c0.322-0.349,0.627-0.694,0.911-1.036c0.285-0.342,0.517-0.627,0.694-0.854l0.209-0.267c-0.292-0.164-0.618-0.209-0.979-0.133
			c-0.361,0.076-0.723,0.222-1.084,0.438c-0.361,0.215-0.706,0.472-1.035,0.77C47.738,11.498,47.461,11.787,47.232,12.065z"/>
		<path fill="#FFFFFF" d="M61.255,3.743c-0.026,0.038-0.19,0.27-0.494,0.693c-0.304,0.425-0.681,0.95-1.13,1.577
			c-0.45,0.627-0.941,1.317-1.473,2.071c-0.533,0.754-1.039,1.473-1.521,2.156s-0.905,1.292-1.272,1.824
			c-0.368,0.532-0.608,0.899-0.723,1.102c-0.24,0.38-0.377,0.655-0.408,0.827c-0.031,0.171,0.003,0.269,0.104,0.294
			c0.126,0.038,0.342-0.044,0.646-0.247c0.305-0.202,0.637-0.468,0.998-0.798c0.361-0.329,0.725-0.684,1.092-1.063
			c0.367-0.381,0.678-0.729,0.932-1.046c0.164-0.202,0.307-0.332,0.428-0.389c0.119-0.058,0.209-0.058,0.266,0
			c0.057,0.057,0.079,0.148,0.066,0.275s-0.063,0.266-0.152,0.418c-0.088,0.127-0.237,0.316-0.446,0.569
			c-0.209,0.254-0.456,0.532-0.741,0.836c-0.285,0.305-0.596,0.621-0.931,0.95c-0.335,0.33-0.678,0.634-1.026,0.912
			c-0.348,0.279-0.688,0.522-1.016,0.731c-0.33,0.209-0.634,0.339-0.912,0.39c-0.367,0.076-0.656,0.057-0.865-0.057
			c-0.209-0.114-0.342-0.292-0.398-0.532s-0.045-0.522,0.038-0.846c0.082-0.323,0.218-0.655,0.408-0.997
			c0.076-0.127,0.225-0.358,0.446-0.693c0.222-0.336,0.491-0.735,0.808-1.197s0.665-0.969,1.046-1.521
			c0.379-0.551,0.766-1.104,1.158-1.662s0.775-1.102,1.149-1.634s0.71-1.007,1.007-1.425c0.298-0.418,0.545-0.764,0.741-1.036
			s0.313-0.434,0.352-0.484c0.151-0.189,0.335-0.345,0.552-0.466c0.215-0.12,0.41-0.18,0.588-0.18h0.551
			c0.178,0,0.279,0.063,0.305,0.189C61.451,3.414,61.395,3.566,61.255,3.743z"/>
		<path fill="#FFFFFF" d="M57.492,20.235c-0.102,0.177-0.234,0.247-0.398,0.209c-0.165-0.038-0.316-0.133-0.456-0.285
			s-0.237-0.345-0.295-0.579c-0.057-0.235-0.028-0.466,0.086-0.693c0.05-0.127,0.183-0.349,0.399-0.665
			c0.215-0.317,0.478-0.688,0.788-1.112c0.31-0.424,0.655-0.887,1.035-1.387s0.761-0.991,1.14-1.473
			c-0.43,0.393-0.864,0.738-1.301,1.036c-0.438,0.298-0.826,0.478-1.169,0.541c-0.367,0.076-0.652,0.057-0.854-0.057
			c-0.203-0.114-0.333-0.292-0.39-0.532c-0.058-0.24-0.048-0.522,0.028-0.846s0.215-0.655,0.418-0.997
			c0.139-0.254,0.332-0.567,0.58-0.94c0.246-0.374,0.496-0.741,0.75-1.103c0.254-0.36,0.487-0.687,0.703-0.979
			c0.215-0.291,0.361-0.481,0.438-0.569c0.139-0.19,0.316-0.343,0.531-0.456c0.215-0.114,0.412-0.172,0.589-0.172h0.552
			c0.177,0,0.281,0.061,0.313,0.181c0.031,0.121-0.021,0.27-0.161,0.447c-0.051,0.063-0.171,0.215-0.36,0.455
			c-0.19,0.241-0.402,0.529-0.637,0.865s-0.479,0.684-0.732,1.045c-0.253,0.36-0.475,0.693-0.664,0.997
			c-0.241,0.38-0.374,0.655-0.399,0.827c-0.025,0.171,0.013,0.269,0.114,0.294c0.113,0.038,0.311-0.034,0.589-0.219
			c0.278-0.183,0.589-0.424,0.931-0.722s0.69-0.63,1.045-0.997c0.355-0.367,0.666-0.71,0.932-1.026
			c0.291-0.418,0.535-0.763,0.731-1.035s0.319-0.434,0.37-0.484c0.139-0.19,0.316-0.343,0.532-0.456
			c0.216-0.114,0.411-0.172,0.589-0.172h0.551c0.178,0,0.279,0.061,0.305,0.181c0.025,0.121-0.032,0.27-0.172,0.447
			c-0.037,0.037-0.161,0.199-0.37,0.484s-0.484,0.668-0.827,1.149c-0.342,0.481-0.737,1.048-1.188,1.7
			c-0.449,0.652-0.928,1.358-1.434,2.118c-0.507,0.761-1.035,1.562-1.587,2.404C58.585,18.503,58.037,19.361,57.492,20.235z"/>
	</g>
</g>
</svg>
