<?xml version="1.0" encoding="utf-8"?>
<!-- Generator: Adobe Illustrator 19.0.0, SVG Export Plug-In . SVG Version: 6.00 Build 0)  -->
<svg version="1.1" id="Modo_de_aislamiento" xmlns="http://www.w3.org/2000/svg" xmlns:xlink="http://www.w3.org/1999/xlink"
	 x="0px" y="0px" viewBox="0 0 568 200.5" style="enable-background:new 0 0 568 200.5;" xml:space="preserve">
<style type="text/css">
	.st0{fill:#E20613;}
	.st1{fill:#FFFFFF;}
</style>
<g>
	<g>
		<g>
			
				<image style="overflow:visible;opacity:0.5;" width="231" height="196" xlink:href="26A28B67AF1EE0A5.png"  transform="matrix(1 0 0 1 9.2044 2.7044)">
			</image>
			<g>
				<path class="st0" d="M60.4,45.4c1.5-0.9,18.5-12.4,20-13.3C130.7,2.2,192.2,6.5,212,34.9c25.9,37,5.7,118.7-99.6,142.4
					c-48.7,11-78.1-8.4-88.5-25.1c-11.1-17.8-3.4-43.3,5.8-55.7c10.5-14.1,34.4-36.8,66.1-42.4c31.7-5.6,43.1,2.7,48.5,9.7
					c3.4,4.4,7.5,22.7-9,36.4c-16,13.4-25.8,14.5-35.8,13.8c-11.2-0.9-16.9-7.6-17.7-11c-1.2-5.1-0.5-8.1,3.5-12.6
					c4.6-5.2,11.7-6.6,18.1-6c6.5,0.6,8.8,3.2,9.9,5.4c0.8,1.7,0.5,3.1,1,3.8c0.5,0.7,1.7,0.9,2.6,0.6c0.9-0.4,3.4-1.8,3.4-1.8
					s9.1-5.8,9.4-12c0.4-10.4-10.4-14-21.9-12.2c-12,1.9-36.9,9.7-48,31.9c-11,22.2-0.7,32.7,10.6,37.3c5.7,2.3,18.4,2.7,33.9-1.9
					l0.7-0.3c8.5-2.4,17.5-6.9,25.8-11.9c35-20.8,51.8-57.2,37.6-81.2c-14.3-24-55.1-24.7-91.5-5.4L60.4,45.4z"/>
			</g>
		</g>
	</g>
	<g>
		<g>
			<path class="st1" d="M272.3,104.9c-16.2,0-32.2-10.5-32.2-30.4c0-19.7,16.1-30.3,32.2-30.3c8,0,14.2,2.1,17.9,4.7l-0.5,17
				c-3.7-3.2-8.9-5-15.5-5c-9.7,0-15.1,6.7-15.1,14.4c0,6.6,5,13.4,14,13.4c1.3,0,2.3-0.1,3.5-0.4v-4.1H269V69.6h24.9v29.6
				C289.7,102.6,282.5,104.9,272.3,104.9z"/>
			<path class="st1" d="M333.6,77.5c-7.6,0-12.5,4.9-12.5,12.9v12.9h-18.3V62.5h16.7l0.4,6.4c2.9-5.3,7.4-7.4,14.7-7.4l0.5,16.1
				C335,77.6,334.5,77.5,333.6,77.5z"/>
			<path class="st1" d="M368.6,103.3l-0.4-4.1c-1.5,2.8-6.7,5.3-12,5.3c-8.9,0-14.7-5.8-14.7-14.7V62.5h18.3v22.4
				c0,1.7,1.5,2.7,3,2.7c1.4,0,3.5-0.8,3.5-3.2v-22h18.3v40.8H368.6z"/>
			<path class="st1" d="M415.8,104.9c-2.4,0-3.9-0.2-5.1-0.8v20h-17.5V62.5H407l0.4,2.6c1.6-2.6,5.6-3.9,9.7-3.9
				c10.8,0,21.2,8.4,21.2,20.6C438.3,96,428.7,104.9,415.8,104.9z M415.2,77.1c-1.6,0-3.2,0.4-4.5,1.3V88c1,0.8,2.5,1.4,4.5,1.4
				c3.4,0,5.9-2.8,5.9-6.1C421.1,79.9,418.7,77.1,415.2,77.1z"/>
			<path class="st1" d="M467.4,104.9c-12.5,0-22.8-9.1-22.8-22.1c0-12.9,10.3-22,22.8-22c12.3,0,22.8,9.1,22.8,22
				C490.2,95.8,479.7,104.9,467.4,104.9z M467.4,76.2c-3,0-5.5,3.1-5.5,6.7c0,3.6,2.5,6.7,5.5,6.7c3,0,5.5-3.1,5.5-6.7
				C472.9,79.2,470.4,76.2,467.4,76.2z"/>
			<path class="st1" d="M287,131.9c-3.1-2-6.4-3.3-12.9-3.3c-9.6,0-14.4,6.8-14.4,13.6c0,6.8,5.1,13.6,15.4,13.6
				c5.5,0,9.6-1.4,12.4-3.3l-0.6,16.8c-2.8,2-8.6,3.3-15.1,3.3c-15.7,0-31.6-10.4-31.6-30.4c0-19.7,16-30.4,31.6-30.4
				c6.5,0,12.3,1.3,15.8,3.3L287,131.9z"/>
			<path class="st1" d="M326.4,145.1c-7.6,0-12.5,4.9-12.5,12.9v12.9h-18.3v-40.8h16.7l0.4,6.4c2.9-5.3,7.4-7.4,14.7-7.4l0.5,16.1
				C327.7,145.2,327.3,145.1,326.4,145.1z"/>
			<path class="st1" d="M356.3,172.5c-12.5,0-22.8-9.1-22.8-22.1c0-12.9,10.3-22,22.8-22c12.3,0,22.8,9.1,22.8,22
				C379.1,163.4,368.6,172.5,356.3,172.5z M354.2,125.5l-6.2-6.2c6.1-1.7,14-5.2,19.2-10.4l2.3,9.9
				C364.3,122.5,360,124.1,354.2,125.5z M356.3,143.8c-3,0-5.5,3.1-5.5,6.7c0,3.6,2.5,6.7,5.5,6.7c3,0,5.5-3.1,5.5-6.7
				C361.8,146.8,359.3,143.8,356.3,143.8z"/>
			<path class="st1" d="M411.1,170.9v-22.4c0-1.7-1.5-2.7-3-2.7c-1.4,0-3.5,0.8-3.5,3.2v22h-18.3v-40.8h16l0.4,4
				c1.5-2.8,6.7-5.3,12-5.3c8.9,0,14.7,5.8,14.7,14.7v27.4H411.1z"/>
			<path class="st1" d="M437.9,170.9v-40.8h18.5v40.8H437.9z M447.1,124.7c-2.8,0-8.7-5.9-8.7-8.6c0-2.8,5.9-8.6,8.7-8.6
				c2.8,0,8.6,5.9,8.6,8.6C455.8,118.8,449.9,124.7,447.1,124.7z"/>
			<path class="st1" d="M499.3,147c-2.5-1.3-5.7-2.2-9.2-2.2c-4.8,0-7.6,2.2-7.6,5.8c0,3.5,3.4,5.8,8.5,5.8c3.5,0,6.2-0.7,8.6-2.1
				l-0.5,15.6c-2.3,1.4-6.7,2.5-12,2.5c-12.8,0-23.2-8.6-23.2-22c0-13.7,10.4-22.1,22.8-22.1c5.4,0,10,1.1,12.9,2.7L499.3,147z"/>
			<path class="st1" d="M545.4,172.5c-4.9,0-8.5-1.1-10.8-4.1c-2.7,2.5-7.1,4.1-11.5,4.1c-8.4,0-15.9-4.5-15.9-14.3
				c0-7.1,5.3-12.5,14.1-13.4l6.9-0.7v-0.5c0-1.6-1.5-2.3-5.1-2.3c-5.2,0-10.3,1.2-12.6,2.4l-0.5-12.9c2.5-1.2,8.8-2.3,14.1-2.3
				c13.2,0,20.7,6.6,20.7,17.9v7.7c0,3.6,1.6,5.6,4.8,5.9L545.4,172.5z M528.9,153.9l-3.4,0.3c-2.9,0.3-4,2.3-4,4.3
				c0,1.6,1.3,2.9,3.2,2.9c2.3,0,4.1-1.6,4.1-3.7V153.9z"/>
		</g>
	</g>
</g>
</svg>
