<?xml version="1.0" encoding="utf-8"?>
<!-- Generator: Adobe Illustrator 19.0.0, SVG Export Plug-In . SVG Version: 6.00 Build 0)  -->
<svg version="1.1" id="Capa_1" xmlns="http://www.w3.org/2000/svg" xmlns:xlink="http://www.w3.org/1999/xlink" x="0px" y="0px"
	 viewBox="-30 221.3 781 154" style="enable-background:new -30 221.3 781 154;" xml:space="preserve">
<style type="text/css">
	.st0{fill:#FFFFFF;}
</style>
<g>
	<path class="st0" d="M267.2,227.7c9.5,0,17.1,6.9,17.1,15.4c0,2.6-0.6,5.4-1.9,7.6c-1.2,2.2-3.7,5.8-7.9,8.9
		c-3.8,2.8-10.6,4-13.1,4c-2.5,0-1.4-0.2-1.4-0.8c0-0.6,0.2-2.1,0-3.2c-0.1-1.1-1.3-2.5-2.4-3.6c-0.3-0.2-0.6-0.5-1-0.8
		c-1-0.7-1.9-1.5-2.7-2.4l-0.2-0.1c-2.3-2.7-3.7-6.1-3.7-9.7C250,234.5,257.7,227.7,267.2,227.7"/>
	<path class="st0" d="M493.9,230.6c7.3,0,13.6,4.6,14.8,11.4c1.5,8.2-4.6,16.6-13.7,18.8c-1.5,0.4-2.9,0.5-4.4,0.5
		c-7.3,0-13.6-4.6-14.8-11.4c-1.5-8.2,4.6-16.6,13.7-18.8C491,230.8,492.4,230.6,493.9,230.6"/>
	<path class="st0" d="M745.2,319.7c0.2,0,3.6,0.2-1.5,7.3c-5.2,7.1-18.1,24.5-29.8,30.6c-9.2,4.8-17.6,6.4-23.8,6.4
		c-1.7,0-3.2-0.1-4.4-0.3c-6.1-0.9-12-5.8-13.5-9.2c-1.5-3.4-1.6-7.6-1.6-7.8c-2.4-0.6-3.3-0.3-4.3,0.5c-2.5,2.2-16.3,13.3-29,13.3
		c-14.2-0.8-20.6-6.3-23.6-11.3c-2.9-5.1-3.9-12.5-4.6-13.5c-0.3-0.4-0.5-1.1-1.5-1.1c-1.2,0-3.6,1-8.9,4.8
		c-9.1,6.6-31.6,23.8-53.7,23.8c-1.1,0-2.2,0-3.3-0.1c-20.4-1.7-27.7-11.6-30.4-15.7c-2.8-4.1-5.6-15.3-5.7-15.9
		c0-0.1-0.6-1.5-2.2-1.5c-0.9,0-2.2,0.5-3.9,2.1c-4.6,4.3-33.4,23.9-41.3,26.7c-3.5,1.2-8.3,2.3-12.8,2.3c-6,0-11.5-1.9-13.4-8.1
		c-2.9-9.7,0.5-14.9,2.3-18.9c1.4-3.1,4.5-10.4,2.7-10.4c-4.9,3.1-30.1,34.1-53.4,37.6c-4.6,0.7-8.6,1.1-12.1,1.1
		c-10.3,0-15.5-3.3-18.1-10.5c-3.1-9,3.4-21.7,5.7-25.8c2.3-4.1,17.1-31.7,17.8-33.2c0.1-0.2,2-4.8-0.5-4.8c-0.8,0-2.1,0.5-4.1,1.8
		c-8.1,5.4-28.2,26.1-33.9,33.2c-10,12.3-22.6,35.2-23.3,36.4c-0.1,0.1-1.5,3-4.2,3.2c-0.9,0.1-4.5,0.1-8.9,0.1
		c-8.8,0-20.2-0.1-20.8-0.1c-0.3,0-1-0.2,0.7-3.9c2-4.3,20.7-45.8,21.7-48c0.2-0.4,3.4-8.5,1.2-8.5c-4.7,2.3-10.9,7.9-13.9,9.2
		c-3,1.3-9.6,3.7-11.1,3.9c-1.5,0.2-6.3,8.2-8.6,11.8c-2.3,3.5-21.7,31.5-41.5,34.2c-3.5,0.4-6.6,0.6-9.3,0.6c-13.1,0-19-4.5-22-8.2
		c-3.6-4.5-5.1-11.9-5.2-14.5c-0.1-2.6,0-7.6,0-7.8c0-0.1-0.8-1.5-2-1.5c-2.7,1.7-31.7,26.5-44.9,31c-6,2-12.3,3.8-17.9,3.8
		c-6.8,0-12.4-2.6-14.8-10.5c-4.2-14.3,5.5-30.3,11.7-38.6c6.1-8.4,14.5-20.5,14.9-21.1c0.1-0.2,2.8-3.7,0-4.5
		c-1.1-0.3-2.3-0.4-3.4-0.4c-1.7,0-2.9,0.2-3,0.2c-0.3,0.4-6.6,7.3-17.6,19.8C105.8,322,71.5,358,40.4,363.4
		c-6.8,1.2-12.9,1.7-18.5,1.7c-20.1,0-32.9-7.1-41.1-17.7c-10.5-13.4-5.4-37.9,3.1-50.8c9.7-14.7,31.2-39.1,60.2-44.8
		c6.7-1.3,12.4-1.9,17.3-1.9c16.5,0,23.9,6.3,27,11c3.1,4.6,7.6,21.6-7.1,34.5c-15.1,13.3-23.6,14.9-32.7,14.9
		c-10.3,0-16.1-5.9-16.8-9.4c-1.1-5.3-0.4-8.5,3.3-13c3.7-4.6,9-6.3,14.1-6.3c0.8,0,1.7,0,2.5,0.1c5.9,0.6,8.1,3.3,9,5.6
		c0.7,1.8,0.5,3.2,0.9,3.9c3.2,0.2,5.4-1.2,5.5-1.3c0.4-0.3,8.4-6,8.7-12.5c0.3-8.9-7.7-13.3-15.3-13.3c-1.6,0-3.2,0.2-4.7,0.6
		c-8.6,2.3-32.7,10.4-42.9,33.4c-10.1,23,1.7,35.7,9,38.5c1.5,0.6,4.1,1,7.4,1c12.4,0,36.1-5.3,60.5-25.4
		c31-25.5,34.4-26.5,33.5-31.4c-1-4.9-1.6-12.3,1-17.2c2-3.8,7.4-8,12.8-7.9c1.6,0,3.2,0.4,4.8,1.2c6.8,3.8,8.9,8.8,10.8,10.5
		c0.9,0.8,1.4,1.2,2.1,1.2c0.8,0,1.6-0.5,3.2-1.4c1.8-1,5.7-2.3,9.5-2.3c2.4,0,4.7,0.5,6.4,2c4.5,3.7,7.6,10.8,4.9,19.7
		c-2.7,8.9-11.1,19.1-15.7,25.7c-4.6,6.6-11.1,16.9-11.3,20.4c-0.2,3,0.5,7.5,4,7.5c0.6,0,1.2-0.1,2-0.4
		c5.3-1.9,26.2-18.2,34.1-26.5c7.8-8.3,11.6-12.1,15-17.8c3.4-5.7,20.1-23.5,36.2-25.5c3.2-0.4,6.2-0.6,9.1-0.6
		c11.5,0,19.9,3,23.4,6.8c4.4,4.8,5.3,9.8,5.7,13.7c0.3,3.9-0.6,5.4,0.7,6.2c0.4,0.2,1.1,0.4,2.3,0.4c3.1,0,8.8-1.4,15.8-7
		c9.6-7.7,11.1-9.6,14.6-13.3c3.4-3.7,6.5-8,6.6-8.2l34.1,0c0.2,0,3.3,0.2,3,2.5c-0.4,2.2-7.3,16.4-8.2,17.7c-0.8,1.3-2,4-1.7,5.2
		c2,0.6,3.9-0.5,5.4-2.4c2.1-2.8,25.6-23.5,37-24.2c1.4-0.1,2.9-0.1,4.4-0.1c10.2,0,20.6,2.5,20.8,9.7c0.3,8.2-7.8,24.8-12.5,33.2
		c-4.6,8.4-9,16.2-10.6,20.6c-1.7,4.3-2.8,8.6-0.7,9.5c3.7,0.1,16.4-6.7,25.8-15.8c9.9-9.7,31.4-31.7,37.6-40.5
		c6.1-8.8,11.6-15.3,14.4-15.7c0.9-0.1,4.2-0.2,8.1-0.2c7.8,0,17.8,0.2,18.3,0.2c0.3,0,5.2,0.6,3.1,4.3c-2.1,3.7-25,46.6-26.2,48.9
		c-0.2,0.3-3.8,6.9-3.3,9.1c0.4,1.6,1.1,3.7,3.8,3.7c1.2,0,2.7-0.4,4.8-1.4c6.8-3.3,25.3-17.9,28.4-21.5
		c3.2-3.5,16.1-24.5,29.2-32.5c12.4-7.7,22.1-10.2,31-10.2c3.2,0,6.2,0.3,9.3,0.9c11.7,2.1,23.5,12.5,23.9,24.2
		c0.3,11.1-7.8,25.7-22.8,27.3c-1.7,0.2-3.3,0.3-4.8,0.3c-11.5,0-16.2-5.6-17.1-13.5c-0.9-8.3,7.2-11.8,9.8-12.3
		c4.9-0.1,9.3,1.2,11.3,3.6c1.5,1.7,2.7,2.2,3.9,2.2c0.8,0,1.5-0.2,2.2-0.5c4.4-1.5,6.9-8.5,2.7-13.1c-2.5-2.8-8.2-5.1-14.8-5.1
		c-3.5,0-7.2,0.7-10.8,2.2c-9.7,4.3-21.1,14-24.7,25.6c-3.5,11.6-4.1,32.2,12.2,33.8c1.8,0.2,3.6,0.3,5.4,0.3
		c14.1,0,26.6-5.5,36-11.6c10.6-6.9,18.6-13.8,19-14.2c0.4-1.5,8.1-29.3,33.1-43.3c12.4-6.9,24.6-8.6,32.9-8.6c4.8,0,8.3,0.6,9.9,1
		c4.3,1.1,7.6,4.6,10.7,8c1.7,2,4.3,4,6.2,4c3.2-0.8,2.7-5.6,2.8-7.2c0.1-2.2,0.7-2.8,6.2-2.8c0.6,0,1.3,0,2.1,0
		c2,0.1,7.2,0.1,12.3,0.1c6.1,0,11.6,0,11.9,0c0.3,0,4.4,0.1,0.3,6.7c-4.3,6.9-27.3,51.9-29.5,56c-2.2,4.2-5,8.4-4.4,12.2
		c0.3,1.7,1.7,3.5,4,3.5c0.9,0,1.9-0.3,3-0.9c4.2-2.2,11.4-8.5,16.7-15.3c3.2-4.1,6.1-11,7.5-11.6c0.8-0.3,4.8-0.4,7.9-0.4
		C743.6,319.7,745.1,319.7,745.2,319.7 M676.5,324.1c11.6-12.6,15.5-29.4,8.6-37.4c-2.4-2.9-5.8-4.2-9.8-4.2
		c-7.2,0-16,4.5-23.5,12.6c-11.6,12.7-15.5,29.4-8.7,37.4c2.4,2.8,5.8,4.2,9.8,4.2C660.1,336.8,669,332.3,676.5,324.1 M263,317.5
		c0.5-1.7-1.8-3.8-3.7-5.4c-1.8-1.5-3.5-5.3-3.1-10.6c0.3-5.4,4.1-11.6,6.1-14.7c1.1-1.6-0.2-2.1-2.3-2.1c-1.8,0-4.3,0.4-6.1,1
		c-5.7,1.7-11.9,6.1-17.5,12.1c-12.3,12.9-17.4,29.4-11.3,36.8c2,2.4,4.9,3.6,8.4,3.6c7.1,0,16.6-4.8,24.8-13.5l0.3-0.3
		c0-0.1,0.9-1,1.8-2.4C261.4,320.7,262.5,319.1,263,317.5"/>
</g>
</svg>
